<svg width="25" height="24" viewBox="0 0 25 24" fill="none" xmlns="http://www.w3.org/2000/svg">
<path fill-rule="evenodd" clip-rule="evenodd" d="M4.92488 5.625H20.0749V6.75L20.0802 5.62501C20.5381 5.62716 20.9796 5.79601 21.3221 6.1C21.6646 6.40398 21.8847 6.82229 21.9413 7.27675L21.943 7.29158L23.274 19.289C23.274 19.2896 23.2741 19.2901 23.2742 19.2906C23.3035 19.5515 23.2777 19.8156 23.1985 20.0659C23.1191 20.3167 22.9878 20.548 22.8132 20.7447C22.6385 20.9415 22.4245 21.0992 22.1848 21.2078C21.9453 21.3164 21.6855 21.3734 21.4224 21.375L21.4155 21.375H3.57734C3.31428 21.3734 3.05451 21.3164 2.81491 21.2078C2.57531 21.0992 2.36124 20.9415 2.18661 20.7447C2.01198 20.548 1.8807 20.3167 1.8013 20.0659C1.72208 19.8157 1.69628 19.5516 1.72559 19.2907C1.72565 19.2902 1.72571 19.2896 1.72577 19.289L3.05674 7.29158L3.05849 7.27675C3.11502 6.82229 3.33511 6.40398 3.67763 6.1C4.02015 5.79601 4.46164 5.62716 4.9196 5.62501L4.92488 5.625ZM19.7439 7.875H5.25582L4.00777 19.125H20.992L19.7439 7.875Z" fill="#C4C4CC"/>
<path fill-rule="evenodd" clip-rule="evenodd" d="M12.5 4.125C11.8038 4.125 11.1361 4.40156 10.6438 4.89384C10.1516 5.38613 9.875 6.05381 9.875 6.75V9.75C9.875 10.3713 9.37132 10.875 8.75 10.875C8.12868 10.875 7.625 10.3713 7.625 9.75V6.75C7.625 5.45707 8.13861 4.21709 9.05285 3.30285C9.96709 2.38861 11.2071 1.875 12.5 1.875C13.7929 1.875 15.0329 2.38861 15.9471 3.30285C16.8614 4.21709 17.375 5.45707 17.375 6.75V9.75C17.375 10.3713 16.8713 10.875 16.25 10.875C15.6287 10.875 15.125 10.3713 15.125 9.75V6.75C15.125 6.05381 14.8484 5.38613 14.3562 4.89384C13.8639 4.40156 13.1962 4.125 12.5 4.125Z" fill="#C4C4CC"/>
</svg>
